<?xml version="1.0" standalone="no"?>
<!DOCTYPE svg PUBLIC "-//W3C//DTD SVG 20010904//EN"
 "http://www.w3.org/TR/2001/REC-SVG-20010904/DTD/svg10.dtd">
<svg version="1.0" xmlns="http://www.w3.org/2000/svg"
 width="902.000000pt" height="902.000000pt" viewBox="0 0 902.000000 902.000000"
 preserveAspectRatio="xMidYMid meet">
<metadata>
Created by potrace 1.14, written by Peter Selinger 2001-2017
</metadata>
<g transform="translate(0.000000,902.000000) scale(0.100000,-0.100000)"
fill="#000000" stroke="none">
<path d="M4151 8859 c-99 -7 -238 -24 -361 -45 -203 -33 -551 -121 -759 -191
-91 -31 -186 -62 -211 -70 -25 -8 -54 -19 -65 -23 -11 -5 -42 -19 -70 -30 -60
-26 -344 -168 -436 -219 -36 -20 -86 -47 -110 -60 -24 -13 -46 -26 -49 -30 -3
-3 -50 -36 -105 -74 -274 -186 -293 -199 -468 -350 -152 -130 -446 -427 -496
-501 -8 -12 -18 -23 -21 -26 -31 -24 -340 -459 -340 -480 0 -5 -4 -10 -8 -10
-5 0 -14 -10 -20 -22 -6 -13 -25 -45 -41 -73 -33 -54 -49 -84 -133 -250 -135
-266 -232 -535 -314 -874 -24 -102 -46 -196 -49 -210 -5 -25 -10 -50 -20 -101
-2 -14 -7 -38 -10 -55 -3 -16 -7 -39 -9 -50 -2 -11 -7 -49 -11 -85 -4 -36 -8
-67 -10 -70 -18 -30 -27 -642 -12 -785 14 -128 18 -160 27 -220 5 -33 12 -78
15 -100 4 -22 8 -49 10 -60 3 -11 11 -51 19 -90 26 -125 86 -368 113 -455 15
-47 27 -87 28 -90 18 -68 110 -307 157 -410 11 -25 26 -56 32 -70 6 -14 26
-52 45 -85 18 -33 34 -65 35 -70 1 -6 12 -27 24 -46 12 -20 22 -39 22 -43 0
-7 160 -267 170 -276 3 -3 18 -25 34 -50 29 -43 211 -290 251 -339 18 -21 59
-67 148 -165 64 -70 200 -205 268 -266 40 -36 88 -80 107 -97 18 -18 37 -33
42 -33 5 0 10 -3 12 -8 2 -4 28 -28 58 -52 30 -25 57 -48 60 -51 3 -3 32 -23
65 -44 33 -22 62 -42 65 -45 8 -10 281 -195 315 -214 176 -97 250 -136 370
-195 77 -38 165 -79 195 -91 30 -12 64 -26 75 -31 92 -39 522 -171 635 -194 8
-2 42 -10 75 -18 33 -9 96 -23 140 -31 44 -9 91 -19 105 -21 59 -12 222 -36
315 -46 126 -13 643 -19 795 -9 388 27 892 140 1305 292 22 8 58 21 80 28 71
23 345 154 525 251 87 47 394 245 423 273 6 6 41 31 77 55 142 96 471 392 614
553 16 18 48 53 70 78 63 71 89 102 116 140 13 19 32 44 42 55 57 65 245 343
339 500 90 152 250 490 281 595 5 19 13 40 17 45 8 11 30 75 36 102 2 10 11
38 19 62 16 44 84 295 92 338 3 13 14 63 25 111 12 48 23 101 26 117 2 17 10
62 18 100 7 39 17 99 21 135 4 36 8 76 10 90 13 97 19 227 19 435 0 265 -9
391 -40 585 -13 80 -17 102 -31 175 -9 44 -22 107 -31 140 -15 62 -20 81 -28
127 -6 32 -92 336 -102 358 -3 8 -7 17 -8 20 -6 23 -18 58 -25 75 -4 11 -25
63 -46 115 -75 192 -199 440 -307 614 -28 46 -171 261 -176 266 -3 3 -52 66
-107 140 -113 149 -105 140 -224 270 -107 118 -261 267 -375 365 -32 28 -63
55 -69 60 -46 42 -126 105 -134 105 -6 0 -12 3 -14 8 -1 4 -25 23 -53 41 -27
19 -52 37 -55 40 -3 4 -12 11 -22 16 -9 6 -70 47 -135 92 -65 44 -166 107
-223 139 -116 64 -406 213 -418 214 -4 1 -25 10 -47 20 -48 23 -319 118 -425
149 -41 13 -86 26 -100 31 -44 15 -298 79 -381 95 -378 75 -482 86 -854 89
-170 2 -361 -1 -424 -5z"/>
</g>
</svg>
